<svg width="456" height="98" viewBox="0 0 456 98" fill="none" xmlns="http://www.w3.org/2000/svg">
<path d="M33.0372 85.4644C32.1185 87.6956 30.806 89.5331 29.0998 91.2394C27.3936 92.8144 25.2936 94.1268 22.9311 95.0456C20.5687 95.9643 17.9437 96.4893 15.1875 96.4893H1.0127V60.1335H15.1875C18.0749 60.1335 20.5687 60.5273 22.9311 61.446C25.2936 62.3648 27.3936 63.6772 29.0998 65.2522C30.806 66.8272 32.1185 68.7959 33.0372 71.0271C33.956 73.2583 34.481 75.6208 34.481 78.1146V78.2458C34.481 80.7395 33.956 83.2332 33.0372 85.4644ZM26.0811 78.2458C26.0811 76.6708 25.8186 75.2271 25.2936 73.7833C24.7686 72.4709 23.9811 71.2896 23.0624 70.3709C22.1436 69.4521 20.9624 68.6647 19.6499 68.1397C18.3375 67.6147 16.7625 67.3522 15.1875 67.3522H9.01882V89.2707H15.1875C16.7625 89.2707 18.3375 89.0081 19.6499 88.4832C20.9624 87.9582 22.1436 87.1707 23.0624 86.2519C23.9811 85.3332 24.7686 84.1519 25.2936 82.8395C25.8186 81.3957 26.0811 79.952 26.0811 78.2458Z" fill="#D95797" stroke="#D95797" stroke-miterlimit="10"/>
<path d="M71.493 87.8269C70.7055 89.9269 69.6555 91.6331 68.3431 92.9456C66.8993 94.2581 65.3244 95.308 63.3557 95.9643C61.3869 96.6205 59.1557 97.0143 56.7932 97.0143C51.9371 97.0143 48.1309 95.7018 45.2434 92.9456C42.3559 90.1894 41.0435 86.2519 41.0435 80.8707V60.1335H49.0496V80.7395C49.0496 83.7582 49.7058 85.9894 51.1496 87.4332C52.5933 88.8769 54.4308 89.6644 56.9245 89.6644C59.4182 89.6644 61.2557 88.8769 62.6994 87.4332C64.1431 85.9894 64.7994 83.7582 64.7994 80.8707V60.1335H72.8055V80.6083C72.6742 83.3645 72.2805 85.7269 71.493 87.8269Z" fill="#D95797" stroke="#D95797" stroke-miterlimit="10"/>
<path d="M110.605 90.8456C109.949 92.0268 109.03 93.0768 107.849 93.9956C106.667 94.783 105.224 95.4393 103.517 95.8331C101.811 96.2268 99.9738 96.4893 98.005 96.4893H80.8115V60.1335H97.6113C101.286 60.1335 104.305 60.921 106.405 62.6273C108.505 64.3335 109.555 66.5647 109.555 69.4522V69.5834C109.555 70.6334 109.424 71.5521 109.161 72.3396C108.899 73.1271 108.505 73.9146 108.111 74.4396C107.717 75.0958 107.192 75.6208 106.667 76.1458C106.142 76.6708 105.486 77.0646 104.83 77.3271C106.93 78.1146 108.636 79.1645 109.817 80.6083C110.999 81.9207 111.655 83.8895 111.655 86.2519V86.3832C111.655 88.0894 111.261 89.5331 110.605 90.8456ZM101.68 70.7647C101.68 69.5834 101.286 68.6647 100.367 68.0084C99.4488 67.3522 98.1363 67.0897 96.43 67.0897H88.5552V74.7021H95.9051C97.6113 74.7021 99.055 74.4396 100.105 73.7833C101.155 73.2584 101.68 72.3396 101.68 70.7647ZM103.78 85.3332C103.78 84.152 103.255 83.102 102.336 82.4457C101.417 81.7895 99.8425 81.3958 97.8738 81.3958H88.6864V89.4019H98.1363C99.8425 89.4019 101.286 89.1394 102.336 88.4832C103.255 87.8269 103.78 86.7769 103.78 85.3332Z" fill="#D95797" stroke="#D95797" stroke-miterlimit="10"/>
<path d="M145.254 96.358L141.973 88.2206H126.617L123.336 96.358H115.198L130.817 59.7397H138.167L153.785 96.358H145.254ZM134.229 69.4521L129.373 81.2644H139.086L134.229 69.4521Z" fill="#D95797" stroke="#D95797" stroke-miterlimit="10"/>
<path d="M159.561 96.3582V60.0024H167.567V96.3582H159.561Z" fill="#D95797" stroke="#D95797" stroke-miterlimit="10"/>
<path d="M222.166 85.4644C221.247 87.6956 219.934 89.5331 218.228 91.2394C216.522 92.8144 214.422 94.1268 212.06 95.0456C209.697 95.9643 207.072 96.4893 204.316 96.4893H190.141V60.1335H204.316C207.203 60.1335 209.697 60.5273 212.06 61.446C214.422 62.3648 216.522 63.6772 218.228 65.2522C219.934 66.8272 221.247 68.7959 222.166 71.0271C223.084 73.2583 223.609 75.6208 223.609 78.1146V78.2458C223.609 80.7395 223.216 83.2332 222.166 85.4644ZM215.209 78.2458C215.209 76.6708 214.947 75.2271 214.422 73.7833C213.897 72.4709 213.11 71.2896 212.191 70.3709C211.272 69.4521 210.091 68.6647 208.778 68.1397C207.466 67.6147 205.891 67.3522 204.316 67.3522H198.147V89.2707H204.316C205.891 89.2707 207.466 89.0081 208.778 88.4832C210.091 87.9582 211.272 87.1707 212.191 86.2519C213.11 85.3332 213.897 84.1519 214.422 82.8395C214.947 81.3957 215.209 79.952 215.209 78.2458Z" fill="#1D9ED0" stroke="#1D9ED0" stroke-miterlimit="10"/>
<path d="M252.747 96.3582L245.003 84.6771H238.703V96.3582H230.697V60.0024H247.234C251.565 60.0024 254.978 61.0524 257.34 63.1524C259.703 65.2524 260.884 68.1398 260.884 71.946V72.0773C260.884 74.9647 260.228 77.4585 258.784 79.2959C257.34 81.1334 255.503 82.4459 253.14 83.3646L262.065 96.3582H252.747ZM252.878 72.471C252.878 70.7648 252.353 69.4523 251.172 68.5336C250.122 67.6148 248.547 67.2211 246.578 67.2211H238.703V77.5897H246.841C248.809 77.5897 250.384 77.0647 251.434 76.146C252.353 75.3585 252.878 74.1772 252.878 72.471Z" fill="#1D9ED0" stroke="#1D9ED0" stroke-miterlimit="10"/>
<path d="M268.234 96.3582V60.0024H295.533V67.0898H276.109V74.4397H293.171V81.5271H276.109V89.1395H295.796V96.2269H268.234V96.3582Z" fill="#1D9ED0" stroke="#1D9ED0" stroke-miterlimit="10"/>
<path d="M330.052 96.358L326.771 88.2206H311.415L308.133 96.358H299.996L315.615 59.7397H322.965L338.583 96.358H330.052ZM319.027 69.4521L314.171 81.2644H323.883L319.027 69.4521Z" fill="#1D9ED0" stroke="#1D9ED0" stroke-miterlimit="10"/>
<path d="M372.445 96.3581V72.6022L362.208 88.0895H361.945L351.839 72.7334V96.2269H343.964V59.8711H352.626L362.208 75.2271L371.789 59.8711H380.451V96.2269H372.445V96.3581Z" fill="#1D9ED0" stroke="#1D9ED0" stroke-miterlimit="10"/>
<path d="M389.376 96.3582V60.0024H397.382V96.3582H389.376Z" fill="#1D9ED0" stroke="#1D9ED0" stroke-miterlimit="10"/>
<path d="M431.9 96.3582L414.313 73.2585V96.3582H406.438V60.0024H413.788L430.85 82.3146V60.0024H438.725V96.3582H431.9Z" fill="#1D9ED0" stroke="#1D9ED0" stroke-miterlimit="10"/>
<path d="M449.75 68.4022H446.6V60.1335H455V67.0897C455 70.5021 454.213 72.9959 452.506 74.4396C450.8 75.8833 448.438 76.6708 445.419 76.8021L444.763 73.5209C448.306 73.1271 450.013 71.4209 449.75 68.4022Z" fill="#1D9ED0" stroke="#1D9ED0" stroke-miterlimit="10"/>
<path d="M241.197 10.128C239.753 10.128 238.441 10.128 236.997 10.128C236.603 10.128 236.472 9.99671 236.472 9.60297C236.472 6.84676 236.472 4.09056 236.472 1.33435C236.472 0.940606 236.603 0.809326 236.997 0.809326C239.753 0.809326 242.641 0.809326 245.397 0.809326C245.791 0.809326 245.922 0.940606 245.922 1.33435C245.922 4.09056 245.922 6.84676 245.922 9.60297C245.922 9.99671 245.791 10.128 245.397 10.128C243.953 10.128 242.641 10.128 241.197 10.128Z" fill="#1D9ED0"/>
<path d="M233.453 5.53445C233.453 6.97818 233.453 8.29068 233.453 9.73441C233.453 10.1282 233.322 10.2594 232.928 10.2594C230.172 10.2594 227.416 10.2594 224.66 10.2594C224.266 10.2594 224.135 10.1282 224.135 9.86567C224.135 7.10945 224.135 4.22196 224.135 1.46575C224.135 1.20325 224.266 1.07202 224.528 1.07202C227.284 1.07202 230.041 1.07202 232.797 1.07202C233.191 1.07202 233.322 1.20326 233.322 1.59701C233.453 2.64699 233.453 4.09072 233.453 5.53445Z" fill="#1D9ED0"/>
<path d="M9.80625 26.0092C11.25 25.7467 12.825 25.7467 14.2687 26.0092C14.6624 26.0092 14.7937 26.0092 14.9249 25.7467C16.6312 23.1217 18.4686 20.628 20.4373 18.2656C22.1436 16.1656 23.9811 14.1969 26.2123 12.6219C27.3935 11.8344 28.5747 11.0469 29.8872 10.9157C33.1684 10.5219 36.9746 11.4406 38.8121 15.2468C40.2558 18.3968 41.4371 21.5468 41.8308 24.9592C41.962 25.7467 42.2246 26.5342 42.3558 27.1904C42.7495 28.6342 43.7995 29.4217 45.3745 29.5529C47.0807 29.6842 73.1991 29.8154 74.9053 29.4217C77.2678 29.0279 78.7115 27.4529 78.7115 24.9592C78.7115 22.728 78.449 20.4968 78.1865 18.2656C77.5303 13.6719 77.7928 16.4281 77.0053 11.8344C76.6116 9.6032 76.2178 7.37197 75.6928 5.14075C75.5616 4.74701 75.6928 4.61577 76.0866 4.61577C79.3678 4.09077 82.649 3.56576 85.9302 3.04077C86.3239 3.04077 86.4552 3.04076 86.5864 3.4345C87.3739 8.81568 87.1114 6.97822 88.0302 12.3594C88.6864 16.9531 89.4739 21.5468 90.2614 26.1405C90.5239 27.7154 91.4426 28.6341 93.0176 29.0279C94.7238 29.4216 149.979 29.4217 151.686 29.4217C157.329 29.1592 162.973 28.7654 168.485 27.1904C170.717 26.5342 172.948 25.7467 174.916 24.5655C175.048 24.4342 175.179 24.4342 175.31 24.303C173.079 23.778 170.979 23.253 168.748 22.8593C166.648 22.3343 164.548 21.9405 162.448 21.4155C162.054 21.2843 161.923 21.4155 161.792 21.8092C161.66 22.3342 161.529 22.728 161.267 23.253C161.135 23.5155 161.004 23.6467 160.742 23.5155C157.592 22.5968 154.442 21.8093 151.292 20.8905C150.898 20.7593 151.029 20.628 151.029 20.3655C151.554 18.7906 152.079 17.0843 152.604 15.5093C153.261 13.5406 153.785 11.7032 154.442 9.73444C154.573 9.34069 154.704 9.20942 155.098 9.34067C160.085 10.5219 165.073 11.8344 170.06 13.0156C176.229 14.4594 182.398 16.0343 188.435 17.4781C188.829 17.6093 188.96 17.7406 188.96 18.1343C188.96 21.153 188.96 24.303 188.96 27.3217C188.96 27.7154 188.829 27.8467 188.566 27.9779C187.648 28.3717 186.729 28.8967 185.81 29.2904C186.466 29.5529 187.123 29.5529 187.648 29.5529C188.96 29.6842 190.272 29.6841 191.585 29.6841C191.847 29.6841 224.266 29.6842 224.397 29.9466C224.397 30.0779 224.528 30.0779 224.66 30.0779C226.234 30.0779 227.809 29.9466 229.253 29.2904C229.778 29.0279 230.172 28.7654 230.566 28.3717C231.353 27.5842 231.353 26.6654 231.222 25.7467C230.828 23.5155 230.303 21.153 229.778 18.9218C229.647 18.5281 229.778 18.3968 230.172 18.2656C233.191 17.6093 236.209 16.9531 239.228 16.4281C239.491 16.2969 239.753 16.4281 239.884 16.8218C240.803 19.9718 241.722 23.253 242.116 26.5342C242.378 28.3717 242.509 30.0779 242.116 31.9154C241.591 34.2778 240.409 36.1153 238.572 37.559C236.341 39.134 233.978 40.0528 231.222 40.4465C229.778 40.709 228.334 40.709 226.891 40.709C224.397 40.709 189.747 40.5778 187.254 40.709C183.841 40.8403 180.823 39.659 178.198 37.559C177.41 36.9028 176.623 36.3778 175.966 35.7216C175.835 35.5903 175.704 35.4591 175.441 35.5903C172.423 37.4278 169.01 38.4778 165.467 39.134C162.71 39.659 159.954 40.0527 157.198 40.184C154.179 40.4465 151.029 40.5778 148.011 40.4465C145.254 40.3153 89.0802 39.659 86.9802 37.559C86.7177 37.2965 86.4552 37.0341 86.1927 36.7716C86.0614 36.6403 86.0614 36.6403 85.9302 36.7716C84.2239 38.8715 81.8615 39.659 79.3678 40.184C78.0553 40.4465 76.8741 40.4465 75.5616 40.5778C73.9866 40.5778 48.1307 40.5778 46.5557 40.5778C45.2433 40.5778 44.1933 40.0527 43.2745 39.5277C42.8808 39.2653 42.487 38.8715 42.2245 38.4778C42.0933 38.2153 41.962 38.2153 41.8308 38.4778C40.9121 39.659 39.7308 40.709 38.5496 41.6277C35.7934 43.5965 32.9059 43.9902 29.756 42.809C27.9185 42.1527 26.3435 41.234 24.7685 40.184C22.5373 38.609 20.1749 37.2966 17.4187 36.6403C16.6312 36.5091 15.8437 36.3778 14.9249 36.3778C14.9249 36.3778 11.1187 36.7716 6.1313 40.0528L0.881374 29.8154C0.225133 29.9466 5.08132 26.4029 9.80625 26.0092ZM33.6934 31.6529C33.5622 29.5529 33.1684 27.4529 32.6434 25.353C32.3809 24.303 32.1184 23.253 31.7247 22.203C31.1997 20.8905 30.281 20.628 29.0997 21.5468C28.5747 21.9405 28.181 22.3343 27.7873 22.8593C26.4748 24.4342 25.4248 26.2717 24.3748 28.1092C24.2435 28.3717 24.3748 28.5029 24.506 28.6342C25.9498 29.6842 27.5248 30.7341 29.0997 31.6529C30.0185 32.1779 31.0685 32.7029 32.1184 33.0966C33.1684 33.3591 33.6934 32.9653 33.6934 31.6529Z" fill="#1D9ED0"/>
<path d="M256.29 21.2842C256.422 20.2342 256.553 19.1842 256.684 18.2655C257.209 14.9843 258.259 11.703 259.572 8.68432C260.097 7.37184 260.753 6.19061 261.54 4.87813C261.672 4.61564 261.803 4.48441 262.197 4.61566C265.215 5.92814 268.365 7.10936 271.384 8.29059C271.778 8.42184 271.778 8.68434 271.515 8.94683C270.203 11.5718 268.89 14.328 267.972 17.0842C267.315 19.3155 266.79 21.4154 266.922 23.7779C267.053 25.8778 267.447 27.9778 268.89 29.684C269.94 30.9965 271.384 31.9153 272.959 32.4403C274.665 33.0965 276.503 33.359 278.471 33.6215C282.803 34.1465 313.777 32.9653 317.715 31.259C320.865 29.9465 323.752 28.3716 326.639 26.6653C326.771 26.5341 326.902 26.5341 327.033 26.4028C326.902 26.2716 326.639 26.2716 326.508 26.2716C324.802 25.8779 323.096 25.0904 321.521 24.3029C319.421 23.1217 317.19 21.9404 315.221 20.4967C314.696 20.1029 314.302 19.7092 313.777 19.3154C313.646 19.0529 313.515 18.9217 313.646 18.6592C315.352 15.903 316.927 13.1468 318.633 10.5218C318.896 10.1281 319.027 10.2593 319.29 10.5218C320.996 12.0968 322.965 13.4093 325.196 14.328C326.902 14.9843 328.608 15.2467 330.446 15.378C332.808 15.5092 335.171 15.5092 337.533 15.5092C337.664 15.5092 337.927 15.5093 338.058 15.7718C338.058 15.903 397.513 15.903 397.645 15.903C399.22 15.903 400.795 15.7717 402.238 15.2467C403.682 14.5905 404.47 13.6718 404.338 11.9655C404.338 11.5718 404.207 11.0468 404.076 10.653C403.682 8.68432 403.157 6.71561 402.763 4.87813C402.632 4.35314 402.632 4.35314 403.157 4.22189C406.176 3.56565 409.195 2.90942 412.213 2.38443C412.607 2.25318 412.738 2.38441 412.87 2.77815C413.788 5.92811 414.707 9.07809 414.969 12.3593C415.232 14.1968 415.363 15.903 414.969 17.7405C414.444 20.1029 413.263 21.9404 411.426 23.3841C409.195 24.9591 406.701 25.8779 404.076 26.2716C403.026 26.4029 401.976 26.4028 400.795 26.4028C398.038 26.4028 335.958 26.4028 333.071 26.4028C332.677 26.4028 332.546 26.5341 332.677 26.9279C333.071 29.2903 333.464 31.6528 333.989 34.0152C334.121 34.5402 333.989 34.8027 333.596 35.0652C331.102 36.6402 328.477 38.2152 325.852 39.5276C322.308 41.3651 318.633 42.8089 314.696 43.8589C312.071 44.5151 282.409 44.7776 279.653 44.7776C275.715 44.6463 271.909 44.1214 268.234 42.5464C263.772 40.7089 260.359 37.6902 258.128 33.359C257.209 31.3903 256.553 29.2903 256.29 27.0591C256.29 26.6653 256.159 26.4028 256.159 26.0091C256.29 24.4341 256.29 22.8591 256.29 21.2842Z" fill="#D95797"/>
<path d="M437.675 2.51562C440.038 6.32182 442.269 10.128 444.632 13.803C446.338 16.6904 447.913 19.7091 448.7 23.1216C449.225 25.3528 449.357 27.584 448.7 29.8152C447.913 32.5714 446.075 34.5402 443.713 35.9839C441.613 37.1651 439.25 37.8214 436.888 37.9526C435.444 38.0839 434 37.9526 432.425 37.9526C428.226 37.9526 423.894 37.9526 419.694 37.9526C419.169 37.9526 419.169 37.9526 419.169 37.4276C419.169 34.1464 419.169 30.9965 419.169 27.7152C419.169 27.1903 419.169 27.1903 419.826 27.1903C422.713 27.3215 425.469 27.4528 428.357 27.584C430.719 27.7153 432.95 27.7153 435.313 27.3215C436.1 27.1903 436.757 27.059 437.544 26.6653C438.332 26.2715 438.725 25.6153 438.2 24.5653C436.888 21.9403 435.313 19.4466 433.869 16.8217C432.294 14.1967 430.588 11.4405 429.013 8.81552C428.751 8.42178 428.882 8.29052 429.144 8.02802C432.032 6.3218 434.788 4.61557 437.675 2.7781C437.413 2.7781 437.544 2.64687 437.675 2.51562Z" fill="#D95797"/>
<path d="M398.301 43.5964C396.726 43.5964 395.151 43.5964 393.576 43.5964C393.051 43.5964 393.051 43.5964 393.051 43.0714C393.051 39.9214 393.051 36.9027 393.051 33.7528C393.051 33.2278 393.051 33.2278 393.576 33.2278C396.726 33.2278 399.876 33.2278 403.026 33.2278C403.419 33.2278 403.551 33.359 403.551 33.7528C403.551 36.9027 403.551 39.9214 403.551 43.0714C403.551 43.5964 403.551 43.5964 403.026 43.5964C401.451 43.5964 399.876 43.5964 398.301 43.5964Z" fill="#D95797"/>
<path d="M361.289 49.3713C359.845 49.3713 358.533 49.3713 357.089 49.3713C356.695 49.3713 356.564 49.2401 356.564 48.8463C356.564 46.0901 356.564 43.3339 356.564 40.5777C356.564 40.184 356.695 40.0527 357.089 40.0527C359.845 40.0527 362.733 40.0527 365.489 40.0527C365.883 40.0527 366.014 40.184 366.014 40.5777C366.014 43.3339 366.014 46.0901 366.014 48.8463C366.014 49.2401 365.883 49.3713 365.489 49.3713C364.045 49.3713 362.601 49.3713 361.289 49.3713Z" fill="#D95797"/>
<path d="M353.545 44.6466C353.545 46.0903 353.545 47.4027 353.545 48.8465C353.545 49.2402 353.414 49.3715 353.02 49.3715C350.264 49.3715 347.508 49.3715 344.752 49.3715C344.358 49.3715 344.227 49.2402 344.227 48.9777C344.227 46.2215 344.227 43.3341 344.227 40.5779C344.227 40.3154 344.358 40.1841 344.62 40.1841C347.377 40.1841 350.133 40.1841 352.889 40.1841C353.283 40.1841 353.414 40.3154 353.414 40.7091C353.545 41.8903 353.545 43.3341 353.545 44.6466Z" fill="#D95797"/>
</svg>
